<svg xmlns="http://www.w3.org/2000/svg" fill="none" viewBox="0 0 24 24" id="Calendar"><path fill="#ffffff" d="M7 10a1 1 0 1 1 2 0 1 1 0 0 1-2 0zm0 4a1 1 0 1 1 2 0 1 1 0 0 1-2 0zm5-5a1 1 0 1 0 0 2 1 1 0 0 0 0-2zm3 1a1 1 0 1 1 2 0 1 1 0 0 1-2 0z" class="color000000 svgShape"></path><path fill="#ffffff" fill-rule="evenodd" d="M15 4a1 1 0 1 1 2 0v1h2a2 2 0 0 1 2 2v12a2 2 0 0 1-2 2H5a2 2 0 0 1-2-2V7a2 2 0 0 1 2-2h2V4a1 1 0 0 1 2 0v1h6V4ZM5 8a1 1 0 0 1 1-1h12a1 1 0 0 1 1 1v10a1 1 0 0 1-1 1H6a1 1 0 0 1-1-1V8Z" clip-rule="evenodd" class="color000000 svgShape"></path></svg>