<!DOCTYPE svg PUBLIC "-//W3C//DTD SVG 1.1//EN" "http://www.w3.org/Graphics/SVG/1.1/DTD/svg11.dtd">
<!-- Uploaded to: SVG Repo, www.svgrepo.com, Transformed by: SVG Repo Mixer Tools -->
<svg fill="#000000" xmlns="http://www.w3.org/2000/svg" width="800px" height="800px" viewBox="0 0 52 52" enable-background="new 0 0 52 52" xml:space="preserve">
<g id="SVGRepo_bgCarrier" stroke-width="0"/>
<g id="SVGRepo_tracerCarrier" stroke-linecap="round" stroke-linejoin="round"/>
<g id="SVGRepo_iconCarrier"> <path d="M32,17.5c0-0.8-0.7-1.5-1.5-1.5h-9c-0.8,0-1.5,0.7-1.5,1.5v27c0,0.8,0.7,1.5,1.5,1.5h9 c0.8,0,1.5-0.7,1.5-1.5V17.5z"/> <path d="M14,17.5c0-0.8-0.7-1.5-1.5-1.5h-9C2.7,16,2,16.7,2,17.5v31C2,49.3,2.7,50,3.5,50h9c0.8,0,1.5-0.7,1.5-1.5 V17.5z"/> <path d="M50,17.5c0-0.8-0.7-1.5-1.5-1.5h-9c-0.8,0-1.5,0.7-1.5,1.5v23c0,0.8,0.7,1.5,1.5,1.5h9 c0.8,0,1.5-0.7,1.5-1.5V17.5z"/> <path d="M50,3.5C50,2.7,49.3,2,48.5,2h-45C2.7,2,2,2.7,2,3.5v5C2,9.3,2.7,10,3.5,10h45c0.8,0,1.5-0.7,1.5-1.5V3.5z"/> </g>
</svg>